<svg xmlns="http://www.w3.org/2000/svg" version="1.1" xmlns:xlink="http://www.w3.org/1999/xlink" xmlns:svgjs="http://svgjs.dev/svgjs" width="2000" height="419" viewBox="0 0 2000 419"><g transform="matrix(1,0,0,1,-1.2112696095522324,-0.8301810177576101)"><svg viewBox="0 0 396 83" data-background-color="#ffffff" preserveAspectRatio="xMidYMid meet" height="419" width="2000" xmlns="http://www.w3.org/2000/svg" xmlns:xlink="http://www.w3.org/1999/xlink"><g id="tight-bounds" transform="matrix(1,0,0,1,0.24008861730862918,0.1644511323958966)"><svg viewBox="0 0 395.52 82.6710977352082" height="82.6710977352082" width="395.52"><g><svg viewBox="0 0 395.52 82.6710977352082" height="82.6710977352082" width="395.52"><g><svg viewBox="0 0 395.52 82.6710977352082" height="82.6710977352082" width="395.52"><g id="textblocktransform"><svg viewBox="0 0 395.52 82.6710977352082" height="82.6710977352082" width="395.52" id="textblock"><g><svg viewBox="0 0 395.52 82.6710977352082" height="82.6710977352082" width="395.52"><path d="M394.594 17.731C392.735 9.15 387.435 6.765 387.435 6.765 371.165-2.074 350.86-0.169 332.619 1.101 300.414 1.152 268.339 3.04 236.208 4.053 168.767 4.207 100.749 1.667 33.643 7.932 27.339 9.854-6.54 8.309 1.121 18.83 3.129 23.206 10.456 28.063 10.232 32.079 11.236 32.783 12.631 31.17 13.226 32.182 15.309 34.911 18.711 33.624 21.501 35.237 17.614 39.545 20.403 43.132 23.062 46.89 18.377 47.869 12.371 47.405 9.675 50.649 9.396 53 7.89 52.554 6.235 52.451 5.026 52.382 2.59 52.64 2.999 53.378 4.394 55.901-1.594 57.359 2.162 59.831-0.422 62.508 3.948 64.825 3.353 67.726 3.278 68.309 3.687 68.807 4.338 68.944 7.22 69.682 3.018 71.124 3.464 72.686 33.029 83.361 65.104 75.981 95.394 80.889 103.259 77.457 97.346 82.108 100.489 81.387 102.943 80.546 104.728 84.03 107.499 82.056 107.927 81.49 107.276 80.151 108.8 80.409 109.6 80.546 110.307 80.512 110.418 79.722 110.586 78.538 109.117 79.276 108.726 78.658 112.947 75.535 111.906 82.966 115.866 82.657 115.68 81.747 114.528 80.443 116.889 80.615 119.232 79.31 119.306 78.229 121.389 81.164 121.463 81.799 121.835 82.245 122.43 82.554 128.938 79.362 135.409 83.687 142.233 82.245 146.417 80.666 150.433 83.103 154.672 82.502 156.16 82.022 157.666 81.164 159.098 82.605 176.632 82.914 195.319 81.627 211.943 82.657 256.364 80.735 303.836 83.446 350.674 80.906 361.719 79.928 373.192 78.538 383.958 77.422 383.958 77.422 392.679 74.367 392.679 60.638S394.538 48.624 394.817 37.691C395.096 26.759 396.398 26.313 394.538 17.731Z" opacity="1" fill="#f2aaae" data-fill-palette-color="tertiary"></path><g transform="matrix(1,0,0,1,55.76832,26.230666666666668)"><svg width="283.98335999999995" viewBox="3.65 -25.65 245.32999999999998 26.099999999999998" height="30.209764401874864" data-palette-color="#ffffff"><path d="M14.2-4.9L21-5.1 21.4-4.7 20.95 0 3.65 0 3.9-7.5 3.65-25.25 21.2-25.25 21.55-24.75 21.15-20.1 14.65-20.35 9.95-20.35 9.85-15.25 14.35-15.2 18.7-15.35 19.05-14.9 18.65-10.15 13.9-10.3 9.75-10.3 9.7-8.1 9.8-4.9 14.2-4.9ZM35-15.95L35.55-15.4 35.55-11.3 23.65-9.45 23.1-10 23.1-14.15 35-15.95ZM51.65-25.6Q55.39-25.6 58.65-24.3L58.65-24.3 57.55-19 57.05-18.75Q55.89-19.55 54.34-20 52.8-20.45 51.25-20.45L51.25-20.45Q48.2-20.45 46.7-18.68 45.2-16.9 45.2-13.1L45.2-13.1Q45.2-4.85 51.55-4.85L51.55-4.85Q53.05-4.85 54.64-5.25 56.25-5.65 57.55-6.35L57.55-6.35 58.09-6.05 57.59-0.8Q54.64 0.4 51.15 0.4L51.15 0.4Q45 0.4 41.8-2.9 38.59-6.2 38.59-12.4L38.59-12.4Q38.59-18.7 42-22.15 45.4-25.6 51.65-25.6L51.65-25.6ZM74.14-25.65Q79.84-25.65 82.94-22.4 86.04-19.15 86.04-13.2L86.04-13.2Q86.04-6.7 82.67-3.13 79.29 0.45 73.14 0.45L73.14 0.45Q67.49 0.45 64.39-2.88 61.29-6.2 61.29-12.25L61.29-12.25Q61.29-18.65 64.64-22.15 67.99-25.65 74.14-25.65L74.14-25.65ZM73.59-20.55Q70.49-20.55 69.17-18.88 67.84-17.2 67.84-13.1L67.84-13.1Q67.84-9.8 68.42-7.93 68.99-6.05 70.27-5.25 71.54-4.45 73.69-4.45L73.69-4.45Q76.84-4.45 78.17-6.1 79.49-7.75 79.49-11.9L79.49-11.9Q79.49-15.2 78.89-17.07 78.29-18.95 77.04-19.75 75.79-20.55 73.59-20.55L73.59-20.55ZM117.29-25.25L119.64 0 113.99 0 113.64-7.65 112.79-15.9 112.39-15.9 106.84-2.5 101.99-2.5 97.04-15.9 96.64-15.9 95.74-8.25 95.19 0 89.84 0 92.54-25.25 99.94-25.25 100.94-21.55 104.59-10.85 104.99-10.85 108.94-21.5 110.04-25.25 117.29-25.25ZM151.59-25.25L153.94 0 148.29 0 147.94-7.65 147.09-15.9 146.69-15.9 141.14-2.5 136.29-2.5 131.34-15.9 130.94-15.9 130.04-8.25 129.49 0 124.14 0 126.84-25.25 134.24-25.25 135.24-21.55 138.89-10.85 139.29-10.85 143.24-21.5 144.34-25.25 151.59-25.25ZM170.44-4.9L177.24-5.1 177.64-4.7 177.19 0 159.89 0 160.14-7.5 159.89-25.25 177.44-25.25 177.79-24.75 177.39-20.1 170.89-20.35 166.19-20.35 166.09-15.25 170.59-15.2 174.94-15.35 175.29-14.9 174.89-10.15 170.14-10.3 165.99-10.3 165.94-8.1 166.04-4.9 170.44-4.9ZM197.73-9.95Q201.08-5.1 203.98-1.45L203.98-1.45 203.93-0.75Q200.83 0.2 197.83 0.4L197.83 0.4 196.93-0.2Q194.13-5.05 192.58-8.15L192.58-8.15 188.73-8.15 188.73-8.1 188.98 0 182.68 0 182.93-7.5 182.68-25.25 193.58-25.3Q197.83-25.3 200.16-23.33 202.48-21.35 202.48-17.7L202.48-17.7Q202.48-15.35 201.23-13.33 199.98-11.3 197.73-9.95L197.73-9.95ZM188.98-20.6L188.83-12.95 192.58-12.75Q194.28-13.3 195.08-14.35 195.88-15.4 195.88-17.05L195.88-17.05Q195.88-18.85 194.83-19.73 193.78-20.6 191.53-20.7L191.53-20.7 188.98-20.6ZM219.43-25.6Q223.18-25.6 226.43-24.3L226.43-24.3 225.33-19 224.83-18.75Q223.68-19.55 222.13-20 220.58-20.45 219.03-20.45L219.03-20.45Q215.98-20.45 214.48-18.68 212.98-16.9 212.98-13.1L212.98-13.1Q212.98-4.85 219.33-4.85L219.33-4.85Q220.83-4.85 222.43-5.25 224.03-5.65 225.33-6.35L225.33-6.35 225.88-6.05 225.38-0.8Q222.43 0.4 218.93 0.4L218.93 0.4Q212.78 0.4 209.58-2.9 206.38-6.2 206.38-12.4L206.38-12.4Q206.38-18.7 209.78-22.15 213.18-25.6 219.43-25.6L219.43-25.6ZM241.63-4.9L248.43-5.1 248.83-4.7 248.38 0 231.08 0 231.33-7.5 231.08-25.25 248.63-25.25 248.98-24.75 248.58-20.1 242.08-20.35 237.38-20.35 237.28-15.25 241.78-15.2 246.13-15.35 246.48-14.9 246.08-10.15 241.33-10.3 237.18-10.3 237.13-8.1 237.23-4.9 241.63-4.9Z" opacity="1" transform="matrix(1,0,0,1,0,0)" fill="#ffffff" class="wordmark-text-0" data-fill-palette-color="quaternary" id="text-0"></path></svg></g></svg></g></svg></g></svg></g><g></g></svg></g><defs></defs></svg><rect width="395.52" height="82.6710977352082" fill="none" stroke="none" visibility="hidden"></rect></g></svg></g></svg>